<svg xmlns="http://www.w3.org/2000/svg" xmlns:xlink="http://www.w3.org/1999/xlink" version="1.1" x="0px" y="0px" viewBox="1 -1 100 125" style="enable-background:new 1 -1 100 100;" xml:space="preserve"><title>12</title><path d="M87.5,40c-4.8,0-8.8,3.8-9,8.6h-11c-0.1-3.6-1.3-7-3.3-9.7l18.5-18.3c1.4,0.9,3,1.4,4.8,1.4c5,0,9-4,9-9s-4-9-9-9s-9,4-9,9  c0,1.7,0.5,3.4,1.4,4.8L61.4,36c-3-2.5-6.8-4-10.9-4c-4,0-7.6,1.4-10.5,3.7L22.1,17.8c0.9-1.4,1.4-3,1.4-4.8c0-5-4-9-9-9s-9,4-9,9  s4,9,9,9c1.8,0,3.4-0.5,4.8-1.4l17.9,17.9c-2.3,2.9-3.7,6.5-3.7,10.5c0,3.9,1.3,7.5,3.6,10.4l-17.8,18c-1.4-0.9-3-1.4-4.8-1.4  c-5,0-9,4-9,9s4,9,9,9s9-4,9-9c0-1.8-0.5-3.4-1.4-4.8l17.8-17.9c1.9,1.5,4.1,2.6,6.5,3.2l0.8,10.2c-3.3,1.3-5.6,4.6-5.6,8.3  c0,5,4,9,9,9s9-4,9-9c0-4.8-3.7-8.7-8.4-9l-0.7-9c0,0,0.1,0,0.1,0c8.2,0,15-5.7,16.6-13.4h12.1c1.4,3.2,4.6,5.4,8.2,5.4c5,0,9-4,9-9  S92.5,40,87.5,40z M55.5,84c0,2.8-2.2,5-5,5s-5-2.2-5-5s2.2-5,5-5S55.5,81.2,55.5,84z M87.5,8c2.8,0,5,2.2,5,5s-2.2,5-5,5  s-5-2.2-5-5S84.7,8,87.5,8z M9.5,13c0-2.8,2.2-5,5-5s5,2.2,5,5s-2.2,5-5,5S9.5,15.8,9.5,13z M14.5,90c-2.8,0-5-2.2-5-5s2.2-5,5-5  s5,2.2,5,5S17.3,90,14.5,90z M50.5,62c-7.2,0-13-5.8-13-13s5.8-13,13-13s13,5.8,13,13S57.7,62,50.5,62z M87.5,54c-2.8,0-5-2.2-5-5  s2.2-5,5-5s5,2.2,5,5S90.3,54,87.5,54z"/></svg>