<svg xmlns="http://www.w3.org/2000/svg" data-name="Layer 1" viewBox="0 0 100 125" x="0px" y="0px"><circle cx="34.51" cy="44.59" r="4.32"/><circle cx="50" cy="44.59" r="4.32"/><circle cx="65.49" cy="44.59" r="4.32"/><path d="M81.4,82.17a4.17,4.17,0,0,1-2.63-.93h0l-9.57-7.66a5.45,5.45,0,0,0-3.4-1.19h-40A11.41,11.41,0,0,1,14.36,61V29.23a11.41,11.41,0,0,1,11.4-11.4H74.24a11.41,11.41,0,0,1,11.4,11.4V77.94a4.24,4.24,0,0,1-4.24,4.23Zm1.86-6.56ZM25.76,25a4.2,4.2,0,0,0-4.2,4.19V61a4.2,4.2,0,0,0,4.2,4.19h40A12.75,12.75,0,0,1,73.69,68l4.75,3.8V29.23A4.2,4.2,0,0,0,74.24,25Z"/></svg>